<mxfile host="app.diagrams.net" agent="Mozilla/5.0 (Windows NT 10.0; Win64; x64) AppleWebKit/537.36 (KHTML, like Gecko) Chrome/135.0.0.0 Safari/537.36" version="26.2.14">
  <diagram name="Page-1" id="p2PqWyGWEEKIKOrkr6bD">
    <mxGraphModel dx="2605" dy="1405" grid="1" gridSize="10" guides="1" tooltips="1" connect="1" arrows="1" fold="1" page="1" pageScale="1" pageWidth="827" pageHeight="1169" math="0" shadow="0">
      <root>
        <mxCell id="0" />
        <mxCell id="1" parent="0" />
        <mxCell id="5N20gbV6z9wjt-wrmvzL-2" value="&lt;span id=&quot;docs-internal-guid-300aa276-7fff-008d-d82a-03845a1bc5f4&quot; style=&quot;font-weight:normal;&quot;&gt;&lt;span style=&quot;font-family: Arial, sans-serif; background-color: transparent; font-weight: 700; font-variant-numeric: normal; font-variant-east-asian: normal; font-variant-alternates: normal; font-variant-position: normal; font-variant-emoji: normal; vertical-align: baseline; white-space-collapse: preserve;&quot;&gt;&lt;font style=&quot;font-size: 18px;&quot;&gt;Gym Minder&lt;/font&gt;&lt;/span&gt;&lt;/span&gt;" style="shape=rect;html=1;verticalAlign=top;fontStyle=1;whiteSpace=wrap;align=center;" vertex="1" parent="1">
          <mxGeometry x="434" y="340" width="579" height="1340" as="geometry" />
        </mxCell>
        <mxCell id="5N20gbV6z9wjt-wrmvzL-3" value="Gym Owner" style="shape=umlActor;html=1;verticalLabelPosition=bottom;verticalAlign=top;align=center;" vertex="1" parent="1">
          <mxGeometry x="360" y="560" width="30" height="60" as="geometry" />
        </mxCell>
        <mxCell id="5N20gbV6z9wjt-wrmvzL-4" value="Authentification" style="ellipse;whiteSpace=wrap;html=1;" vertex="1" parent="1">
          <mxGeometry x="515" y="930" width="110" height="60" as="geometry" />
        </mxCell>
        <mxCell id="5N20gbV6z9wjt-wrmvzL-5" value="Reset Password" style="ellipse;whiteSpace=wrap;html=1;" vertex="1" parent="1">
          <mxGeometry x="770" y="935.5" width="100" height="49" as="geometry" />
        </mxCell>
        <mxCell id="5N20gbV6z9wjt-wrmvzL-6" value="Manage Clients" style="ellipse;whiteSpace=wrap;html=1;" vertex="1" parent="1">
          <mxGeometry x="530" y="495" width="110" height="60" as="geometry" />
        </mxCell>
        <mxCell id="5N20gbV6z9wjt-wrmvzL-7" value="Crud gym members" style="ellipse;whiteSpace=wrap;html=1;" vertex="1" parent="1">
          <mxGeometry x="704.5" y="455" width="110" height="60" as="geometry" />
        </mxCell>
        <mxCell id="5N20gbV6z9wjt-wrmvzL-8" value="Statistics" style="ellipse;whiteSpace=wrap;html=1;" vertex="1" parent="1">
          <mxGeometry x="690" y="400" width="100" height="50" as="geometry" />
        </mxCell>
        <mxCell id="5N20gbV6z9wjt-wrmvzL-9" value="Search clients" style="ellipse;whiteSpace=wrap;html=1;" vertex="1" parent="1">
          <mxGeometry x="704.5" y="557.46" width="110" height="60" as="geometry" />
        </mxCell>
        <mxCell id="5N20gbV6z9wjt-wrmvzL-10" value="Track members attendance" style="ellipse;whiteSpace=wrap;html=1;" vertex="1" parent="1">
          <mxGeometry x="594.5" y="587.46" width="110" height="60" as="geometry" />
        </mxCell>
        <mxCell id="5N20gbV6z9wjt-wrmvzL-11" value="Administrator" style="shape=umlActor;html=1;verticalLabelPosition=bottom;verticalAlign=top;align=center;" vertex="1" parent="1">
          <mxGeometry x="360" y="1070" width="30" height="60" as="geometry" />
        </mxCell>
        <mxCell id="5N20gbV6z9wjt-wrmvzL-12" value="&amp;lt;&amp;lt;extend&amp;gt;&amp;gt;" style="html=1;verticalAlign=bottom;labelBackgroundColor=none;endArrow=open;endFill=0;dashed=1;rounded=0;exitX=0;exitY=0.5;exitDx=0;exitDy=0;entryX=1;entryY=0.5;entryDx=0;entryDy=0;" edge="1" parent="1" source="5N20gbV6z9wjt-wrmvzL-5" target="5N20gbV6z9wjt-wrmvzL-4">
          <mxGeometry width="160" relative="1" as="geometry">
            <mxPoint x="825" y="960" as="sourcePoint" />
            <mxPoint x="765" y="990" as="targetPoint" />
          </mxGeometry>
        </mxCell>
        <mxCell id="5N20gbV6z9wjt-wrmvzL-13" value="" style="endArrow=none;startArrow=none;endFill=0;startFill=0;endSize=8;html=1;verticalAlign=bottom;labelBackgroundColor=none;strokeWidth=1;rounded=0;exitX=0.574;exitY=0.775;exitDx=0;exitDy=0;exitPerimeter=0;entryX=0;entryY=0.5;entryDx=0;entryDy=0;" edge="1" parent="1" source="5N20gbV6z9wjt-wrmvzL-3" target="5N20gbV6z9wjt-wrmvzL-4">
          <mxGeometry width="160" relative="1" as="geometry">
            <mxPoint x="390" y="310" as="sourcePoint" />
            <mxPoint x="500" y="310" as="targetPoint" />
          </mxGeometry>
        </mxCell>
        <mxCell id="5N20gbV6z9wjt-wrmvzL-14" value="" style="endArrow=none;startArrow=none;endFill=0;startFill=0;endSize=8;html=1;verticalAlign=bottom;labelBackgroundColor=none;strokeWidth=1;rounded=0;entryX=0;entryY=0.5;entryDx=0;entryDy=0;exitX=1;exitY=0.3333333333333333;exitDx=0;exitDy=0;exitPerimeter=0;" edge="1" parent="1" source="5N20gbV6z9wjt-wrmvzL-3" target="5N20gbV6z9wjt-wrmvzL-6">
          <mxGeometry width="160" relative="1" as="geometry">
            <mxPoint x="400" y="321" as="sourcePoint" />
            <mxPoint x="500" y="330" as="targetPoint" />
          </mxGeometry>
        </mxCell>
        <mxCell id="5N20gbV6z9wjt-wrmvzL-15" value="" style="endArrow=block;endSize=16;endFill=0;html=1;rounded=0;exitX=0;exitY=0.5;exitDx=0;exitDy=0;entryX=0.983;entryY=0.38;entryDx=0;entryDy=0;entryPerimeter=0;" edge="1" parent="1" source="5N20gbV6z9wjt-wrmvzL-7" target="5N20gbV6z9wjt-wrmvzL-6">
          <mxGeometry x="-1" y="104" width="160" relative="1" as="geometry">
            <mxPoint x="705" y="485" as="sourcePoint" />
            <mxPoint x="640" y="525" as="targetPoint" />
            <mxPoint x="41" y="-48" as="offset" />
          </mxGeometry>
        </mxCell>
        <mxCell id="5N20gbV6z9wjt-wrmvzL-16" value="" style="endArrow=block;endSize=16;endFill=0;html=1;rounded=0;entryX=0.97;entryY=0.688;entryDx=0;entryDy=0;entryPerimeter=0;exitX=0.077;exitY=0.255;exitDx=0;exitDy=0;exitPerimeter=0;" edge="1" parent="1" source="5N20gbV6z9wjt-wrmvzL-9" target="5N20gbV6z9wjt-wrmvzL-6">
          <mxGeometry x="-1" y="104" width="160" relative="1" as="geometry">
            <mxPoint x="706" y="571.46" as="sourcePoint" />
            <mxPoint x="618.3899999999999" y="515" as="targetPoint" />
            <mxPoint x="41" y="-48" as="offset" />
          </mxGeometry>
        </mxCell>
        <mxCell id="5N20gbV6z9wjt-wrmvzL-17" value="" style="endArrow=block;endSize=16;endFill=0;html=1;rounded=0;entryX=1;entryY=1;entryDx=0;entryDy=0;exitX=0.413;exitY=0.022;exitDx=0;exitDy=0;exitPerimeter=0;" edge="1" parent="1" source="5N20gbV6z9wjt-wrmvzL-10" target="5N20gbV6z9wjt-wrmvzL-6">
          <mxGeometry x="-1" y="104" width="160" relative="1" as="geometry">
            <mxPoint x="658.5" y="587.46" as="sourcePoint" />
            <mxPoint x="591" y="517.46" as="targetPoint" />
            <mxPoint x="41" y="-48" as="offset" />
          </mxGeometry>
        </mxCell>
        <mxCell id="5N20gbV6z9wjt-wrmvzL-18" value="Gym Owner Dashboard" style="ellipse;whiteSpace=wrap;html=1;" vertex="1" parent="1">
          <mxGeometry x="515" y="400" width="115" height="60" as="geometry" />
        </mxCell>
        <mxCell id="5N20gbV6z9wjt-wrmvzL-19" value="" style="endArrow=none;startArrow=none;endFill=0;startFill=0;endSize=8;html=1;verticalAlign=bottom;labelBackgroundColor=none;strokeWidth=1;rounded=0;entryX=0;entryY=1;entryDx=0;entryDy=0;exitX=1;exitY=0.3333333333333333;exitDx=0;exitDy=0;exitPerimeter=0;" edge="1" parent="1" source="5N20gbV6z9wjt-wrmvzL-3" target="5N20gbV6z9wjt-wrmvzL-18">
          <mxGeometry width="160" relative="1" as="geometry">
            <mxPoint x="390" y="512.5" as="sourcePoint" />
            <mxPoint x="530" y="457.5" as="targetPoint" />
          </mxGeometry>
        </mxCell>
        <mxCell id="5N20gbV6z9wjt-wrmvzL-20" value="&amp;lt;&amp;lt;include&amp;gt;&amp;gt;" style="html=1;verticalAlign=bottom;labelBackgroundColor=none;endArrow=open;endFill=0;dashed=1;rounded=0;exitX=0.215;exitY=0.972;exitDx=0;exitDy=0;exitPerimeter=0;entryX=0.5;entryY=0;entryDx=0;entryDy=0;" edge="1" parent="1" source="5N20gbV6z9wjt-wrmvzL-18" target="5N20gbV6z9wjt-wrmvzL-4">
          <mxGeometry width="160" relative="1" as="geometry">
            <mxPoint x="640" y="390" as="sourcePoint" />
            <mxPoint x="689.21" y="1015.8" as="targetPoint" />
            <Array as="points">
              <mxPoint x="490" y="520" />
              <mxPoint x="500" y="860" />
            </Array>
          </mxGeometry>
        </mxCell>
        <mxCell id="5N20gbV6z9wjt-wrmvzL-21" value="&amp;lt;&amp;lt;include&amp;gt;&amp;gt;" style="html=1;verticalAlign=bottom;labelBackgroundColor=none;endArrow=open;endFill=0;dashed=1;rounded=0;exitX=0.249;exitY=0.904;exitDx=0;exitDy=0;exitPerimeter=0;" edge="1" parent="1" source="5N20gbV6z9wjt-wrmvzL-6">
          <mxGeometry width="160" relative="1" as="geometry">
            <mxPoint x="610" y="505" as="sourcePoint" />
            <mxPoint x="585" y="930" as="targetPoint" />
            <Array as="points">
              <mxPoint x="520" y="590" />
              <mxPoint x="520" y="800" />
            </Array>
          </mxGeometry>
        </mxCell>
        <mxCell id="5N20gbV6z9wjt-wrmvzL-22" value="Manage Payments" style="ellipse;whiteSpace=wrap;html=1;" vertex="1" parent="1">
          <mxGeometry x="530" y="700" width="110" height="60" as="geometry" />
        </mxCell>
        <mxCell id="5N20gbV6z9wjt-wrmvzL-23" value="View payments Status" style="ellipse;whiteSpace=wrap;html=1;" vertex="1" parent="1">
          <mxGeometry x="714.5" y="690" width="110" height="60" as="geometry" />
        </mxCell>
        <mxCell id="5N20gbV6z9wjt-wrmvzL-24" value="Pay manually" style="ellipse;whiteSpace=wrap;html=1;" vertex="1" parent="1">
          <mxGeometry x="669" y="780" width="110" height="60" as="geometry" />
        </mxCell>
        <mxCell id="5N20gbV6z9wjt-wrmvzL-25" value="" style="endArrow=block;endSize=16;endFill=0;html=1;rounded=0;entryX=0.97;entryY=0.688;entryDx=0;entryDy=0;entryPerimeter=0;exitX=0.077;exitY=0.255;exitDx=0;exitDy=0;exitPerimeter=0;" edge="1" parent="1" source="5N20gbV6z9wjt-wrmvzL-23" target="5N20gbV6z9wjt-wrmvzL-22">
          <mxGeometry x="-1" y="104" width="160" relative="1" as="geometry">
            <mxPoint x="706" y="776.46" as="sourcePoint" />
            <mxPoint x="618.3899999999999" y="720" as="targetPoint" />
            <mxPoint x="41" y="-48" as="offset" />
          </mxGeometry>
        </mxCell>
        <mxCell id="5N20gbV6z9wjt-wrmvzL-26" value="" style="endArrow=block;endSize=16;endFill=0;html=1;rounded=0;entryX=1;entryY=1;entryDx=0;entryDy=0;exitX=0.413;exitY=0.022;exitDx=0;exitDy=0;exitPerimeter=0;" edge="1" parent="1" source="5N20gbV6z9wjt-wrmvzL-24" target="5N20gbV6z9wjt-wrmvzL-22">
          <mxGeometry x="-1" y="104" width="160" relative="1" as="geometry">
            <mxPoint x="658.5" y="792.46" as="sourcePoint" />
            <mxPoint x="591" y="722.46" as="targetPoint" />
            <mxPoint x="41" y="-48" as="offset" />
          </mxGeometry>
        </mxCell>
        <mxCell id="5N20gbV6z9wjt-wrmvzL-27" value="" style="endArrow=none;startArrow=none;endFill=0;startFill=0;endSize=8;html=1;verticalAlign=bottom;labelBackgroundColor=none;strokeWidth=1;rounded=0;entryX=0.084;entryY=0.286;entryDx=0;entryDy=0;exitX=0.735;exitY=0.764;exitDx=0;exitDy=0;exitPerimeter=0;entryPerimeter=0;" edge="1" parent="1" source="5N20gbV6z9wjt-wrmvzL-3" target="5N20gbV6z9wjt-wrmvzL-22">
          <mxGeometry width="160" relative="1" as="geometry">
            <mxPoint x="400" y="590" as="sourcePoint" />
            <mxPoint x="540" y="535" as="targetPoint" />
          </mxGeometry>
        </mxCell>
        <mxCell id="5N20gbV6z9wjt-wrmvzL-28" value="&amp;lt;&amp;lt;include&amp;gt;&amp;gt;" style="html=1;verticalAlign=bottom;labelBackgroundColor=none;endArrow=open;endFill=0;dashed=1;rounded=0;entryX=1;entryY=0;entryDx=0;entryDy=0;exitX=0.349;exitY=0.968;exitDx=0;exitDy=0;exitPerimeter=0;" edge="1" parent="1" source="5N20gbV6z9wjt-wrmvzL-22" target="5N20gbV6z9wjt-wrmvzL-4">
          <mxGeometry width="160" relative="1" as="geometry">
            <mxPoint x="640" y="730" as="sourcePoint" />
            <mxPoint x="749.1409672432953" y="1011.0759054386974" as="targetPoint" />
            <Array as="points">
              <mxPoint x="580" y="810" />
            </Array>
          </mxGeometry>
        </mxCell>
        <mxCell id="5N20gbV6z9wjt-wrmvzL-29" value="" style="endArrow=block;endSize=16;endFill=0;html=1;rounded=0;exitX=0;exitY=0.5;exitDx=0;exitDy=0;entryX=0.947;entryY=0.739;entryDx=0;entryDy=0;entryPerimeter=0;" edge="1" parent="1" source="5N20gbV6z9wjt-wrmvzL-8" target="5N20gbV6z9wjt-wrmvzL-18">
          <mxGeometry x="-1" y="104" width="160" relative="1" as="geometry">
            <mxPoint x="690" y="417" as="sourcePoint" />
            <mxPoint x="623" y="450" as="targetPoint" />
            <mxPoint x="41" y="-48" as="offset" />
          </mxGeometry>
        </mxCell>
        <mxCell id="5N20gbV6z9wjt-wrmvzL-30" value="Website admin dashboard" style="ellipse;whiteSpace=wrap;html=1;" vertex="1" parent="1">
          <mxGeometry x="508.5" y="1060" width="140" height="70" as="geometry" />
        </mxCell>
        <mxCell id="5N20gbV6z9wjt-wrmvzL-31" value="" style="edgeStyle=none;html=1;endArrow=none;verticalAlign=bottom;rounded=0;exitX=0.5;exitY=0.5;exitDx=0;exitDy=0;exitPerimeter=0;entryX=0;entryY=1;entryDx=0;entryDy=0;" edge="1" parent="1" source="5N20gbV6z9wjt-wrmvzL-11" target="5N20gbV6z9wjt-wrmvzL-4">
          <mxGeometry width="160" relative="1" as="geometry">
            <mxPoint x="490" y="1080" as="sourcePoint" />
            <mxPoint x="650" y="1080" as="targetPoint" />
          </mxGeometry>
        </mxCell>
        <mxCell id="5N20gbV6z9wjt-wrmvzL-32" value="Statistics" style="ellipse;whiteSpace=wrap;html=1;" vertex="1" parent="1">
          <mxGeometry x="714.5" y="1050" width="100" height="50" as="geometry" />
        </mxCell>
        <mxCell id="5N20gbV6z9wjt-wrmvzL-33" value="" style="endArrow=block;endSize=16;endFill=0;html=1;rounded=0;exitX=0;exitY=0.5;exitDx=0;exitDy=0;entryX=0.947;entryY=0.739;entryDx=0;entryDy=0;entryPerimeter=0;" edge="1" parent="1" source="5N20gbV6z9wjt-wrmvzL-32">
          <mxGeometry x="-1" y="104" width="160" relative="1" as="geometry">
            <mxPoint x="714.5" y="1067" as="sourcePoint" />
            <mxPoint x="648.5" y="1094" as="targetPoint" />
            <mxPoint x="41" y="-48" as="offset" />
          </mxGeometry>
        </mxCell>
        <mxCell id="5N20gbV6z9wjt-wrmvzL-34" value="" style="edgeStyle=none;html=1;endArrow=none;verticalAlign=bottom;rounded=0;exitX=0.5;exitY=0.5;exitDx=0;exitDy=0;exitPerimeter=0;entryX=0;entryY=0.5;entryDx=0;entryDy=0;" edge="1" parent="1" source="5N20gbV6z9wjt-wrmvzL-11" target="5N20gbV6z9wjt-wrmvzL-30">
          <mxGeometry width="160" relative="1" as="geometry">
            <mxPoint x="385" y="1110" as="sourcePoint" />
            <mxPoint x="541" y="991" as="targetPoint" />
          </mxGeometry>
        </mxCell>
        <mxCell id="5N20gbV6z9wjt-wrmvzL-35" value="Manage gym owners" style="ellipse;whiteSpace=wrap;html=1;" vertex="1" parent="1">
          <mxGeometry x="530" y="1170" width="110" height="60" as="geometry" />
        </mxCell>
        <mxCell id="5N20gbV6z9wjt-wrmvzL-36" value="activate/ desactivate gym owner account" style="ellipse;whiteSpace=wrap;html=1;" vertex="1" parent="1">
          <mxGeometry x="704.5" y="1130" width="110" height="60" as="geometry" />
        </mxCell>
        <mxCell id="5N20gbV6z9wjt-wrmvzL-37" value="See gym owner payment status" style="ellipse;whiteSpace=wrap;html=1;" vertex="1" parent="1">
          <mxGeometry x="704.5" y="1232.46" width="110" height="60" as="geometry" />
        </mxCell>
        <mxCell id="5N20gbV6z9wjt-wrmvzL-38" value="" style="endArrow=block;endSize=16;endFill=0;html=1;rounded=0;exitX=0;exitY=0.5;exitDx=0;exitDy=0;entryX=0.983;entryY=0.38;entryDx=0;entryDy=0;entryPerimeter=0;" edge="1" parent="1" source="5N20gbV6z9wjt-wrmvzL-36" target="5N20gbV6z9wjt-wrmvzL-35">
          <mxGeometry x="-1" y="104" width="160" relative="1" as="geometry">
            <mxPoint x="705" y="1160" as="sourcePoint" />
            <mxPoint x="640" y="1200" as="targetPoint" />
            <mxPoint x="41" y="-48" as="offset" />
          </mxGeometry>
        </mxCell>
        <mxCell id="5N20gbV6z9wjt-wrmvzL-39" value="" style="endArrow=block;endSize=16;endFill=0;html=1;rounded=0;entryX=0.97;entryY=0.688;entryDx=0;entryDy=0;entryPerimeter=0;exitX=0.077;exitY=0.255;exitDx=0;exitDy=0;exitPerimeter=0;" edge="1" parent="1" source="5N20gbV6z9wjt-wrmvzL-37" target="5N20gbV6z9wjt-wrmvzL-35">
          <mxGeometry x="-1" y="104" width="160" relative="1" as="geometry">
            <mxPoint x="706" y="1246.46" as="sourcePoint" />
            <mxPoint x="618.3899999999999" y="1190" as="targetPoint" />
            <mxPoint x="41" y="-48" as="offset" />
          </mxGeometry>
        </mxCell>
        <mxCell id="5N20gbV6z9wjt-wrmvzL-40" value="Generate rappports" style="ellipse;whiteSpace=wrap;html=1;" vertex="1" parent="1">
          <mxGeometry x="530" y="1292.46" width="110" height="60" as="geometry" />
        </mxCell>
        <mxCell id="5N20gbV6z9wjt-wrmvzL-41" value="" style="edgeStyle=none;html=1;endArrow=none;verticalAlign=bottom;rounded=0;exitX=0.405;exitY=0.668;exitDx=0;exitDy=0;exitPerimeter=0;entryX=0.05;entryY=0.349;entryDx=0;entryDy=0;entryPerimeter=0;" edge="1" parent="1" source="5N20gbV6z9wjt-wrmvzL-11" target="5N20gbV6z9wjt-wrmvzL-35">
          <mxGeometry width="160" relative="1" as="geometry">
            <mxPoint x="385" y="1110" as="sourcePoint" />
            <mxPoint x="519" y="1105" as="targetPoint" />
          </mxGeometry>
        </mxCell>
        <mxCell id="5N20gbV6z9wjt-wrmvzL-42" value="" style="edgeStyle=none;html=1;endArrow=none;verticalAlign=bottom;rounded=0;exitX=0.181;exitY=0.851;exitDx=0;exitDy=0;exitPerimeter=0;entryX=0;entryY=0;entryDx=0;entryDy=0;" edge="1" parent="1" source="5N20gbV6z9wjt-wrmvzL-11" target="5N20gbV6z9wjt-wrmvzL-40">
          <mxGeometry width="160" relative="1" as="geometry">
            <mxPoint x="381" y="1120" as="sourcePoint" />
            <mxPoint x="515" y="1115" as="targetPoint" />
          </mxGeometry>
        </mxCell>
        <mxCell id="5N20gbV6z9wjt-wrmvzL-43" value="&amp;lt;&amp;lt;include&amp;gt;&amp;gt;" style="edgeStyle=none;html=1;endArrow=open;verticalAlign=bottom;dashed=1;labelBackgroundColor=none;rounded=0;entryX=0.569;entryY=0.939;entryDx=0;entryDy=0;entryPerimeter=0;exitX=0.566;exitY=0.054;exitDx=0;exitDy=0;exitPerimeter=0;" edge="1" parent="1" source="5N20gbV6z9wjt-wrmvzL-30" target="5N20gbV6z9wjt-wrmvzL-4">
          <mxGeometry width="160" relative="1" as="geometry">
            <mxPoint x="660" y="1020" as="sourcePoint" />
            <mxPoint x="820" y="1020" as="targetPoint" />
          </mxGeometry>
        </mxCell>
        <mxCell id="5N20gbV6z9wjt-wrmvzL-44" value="&amp;lt;&amp;lt;include&amp;gt;&amp;gt;" style="edgeStyle=none;html=1;endArrow=open;verticalAlign=bottom;dashed=1;labelBackgroundColor=none;rounded=0;exitX=1;exitY=0.5;exitDx=0;exitDy=0;entryX=0.975;entryY=0.716;entryDx=0;entryDy=0;entryPerimeter=0;" edge="1" parent="1" source="5N20gbV6z9wjt-wrmvzL-35" target="5N20gbV6z9wjt-wrmvzL-30">
          <mxGeometry width="160" relative="1" as="geometry">
            <mxPoint x="680" y="1200" as="sourcePoint" />
            <mxPoint x="840" y="1200" as="targetPoint" />
            <Array as="points">
              <mxPoint x="920" y="1200" />
              <mxPoint x="910" y="1120" />
            </Array>
          </mxGeometry>
        </mxCell>
        <mxCell id="5N20gbV6z9wjt-wrmvzL-45" value="&amp;lt;&amp;lt;include&amp;gt;&amp;gt;" style="edgeStyle=none;html=1;endArrow=open;verticalAlign=bottom;dashed=1;labelBackgroundColor=none;rounded=0;exitX=1;exitY=0.5;exitDx=0;exitDy=0;entryX=0.801;entryY=0.872;entryDx=0;entryDy=0;entryPerimeter=0;" edge="1" parent="1" target="5N20gbV6z9wjt-wrmvzL-30">
          <mxGeometry width="160" relative="1" as="geometry">
            <mxPoint x="640" y="1322.46" as="sourcePoint" />
            <mxPoint x="645" y="1232.46" as="targetPoint" />
            <Array as="points">
              <mxPoint x="970" y="1320" />
              <mxPoint x="970" y="1130" />
            </Array>
          </mxGeometry>
        </mxCell>
        <mxCell id="5N20gbV6z9wjt-wrmvzL-46" value="GymMinder" style="shape=umlActor;html=1;verticalLabelPosition=bottom;verticalAlign=top;align=center;" vertex="1" parent="1">
          <mxGeometry x="1060" y="1400" width="30" height="60" as="geometry" />
        </mxCell>
        <mxCell id="5N20gbV6z9wjt-wrmvzL-47" value="Send notification about subscriptions" style="ellipse;whiteSpace=wrap;html=1;" vertex="1" parent="1">
          <mxGeometry x="800" y="1360" width="140" height="70" as="geometry" />
        </mxCell>
        <mxCell id="5N20gbV6z9wjt-wrmvzL-48" value="" style="edgeStyle=none;html=1;endArrow=none;verticalAlign=bottom;rounded=0;entryX=0.337;entryY=0.354;entryDx=0;entryDy=0;entryPerimeter=0;exitX=1;exitY=0.5;exitDx=0;exitDy=0;" edge="1" parent="1" source="5N20gbV6z9wjt-wrmvzL-47" target="5N20gbV6z9wjt-wrmvzL-46">
          <mxGeometry width="160" relative="1" as="geometry">
            <mxPoint x="910" y="1420" as="sourcePoint" />
            <mxPoint x="1070" y="1420" as="targetPoint" />
          </mxGeometry>
        </mxCell>
        <mxCell id="5N20gbV6z9wjt-wrmvzL-49" value="Guest" style="shape=umlActor;html=1;verticalLabelPosition=bottom;verticalAlign=top;align=center;" vertex="1" parent="1">
          <mxGeometry x="360" y="1500" width="30" height="60" as="geometry" />
        </mxCell>
        <mxCell id="5N20gbV6z9wjt-wrmvzL-55" value="See Home Page" style="ellipse;whiteSpace=wrap;html=1;" vertex="1" parent="1">
          <mxGeometry x="508.5" y="1470" width="120" height="80" as="geometry" />
        </mxCell>
        <mxCell id="5N20gbV6z9wjt-wrmvzL-58" value="" style="endArrow=none;html=1;rounded=0;entryX=0;entryY=0.5;entryDx=0;entryDy=0;exitX=0.758;exitY=0.734;exitDx=0;exitDy=0;exitPerimeter=0;" edge="1" parent="1" source="5N20gbV6z9wjt-wrmvzL-49" target="5N20gbV6z9wjt-wrmvzL-55">
          <mxGeometry width="50" height="50" relative="1" as="geometry">
            <mxPoint x="389" y="1540" as="sourcePoint" />
            <mxPoint x="439" y="1490" as="targetPoint" />
          </mxGeometry>
        </mxCell>
        <mxCell id="5N20gbV6z9wjt-wrmvzL-59" value="Send Email confirmation" style="ellipse;whiteSpace=wrap;html=1;" vertex="1" parent="1">
          <mxGeometry x="810" y="1450" width="140" height="70" as="geometry" />
        </mxCell>
        <mxCell id="5N20gbV6z9wjt-wrmvzL-60" value="Send reset password link" style="ellipse;whiteSpace=wrap;html=1;" vertex="1" parent="1">
          <mxGeometry x="840" y="1550" width="140" height="70" as="geometry" />
        </mxCell>
        <mxCell id="5N20gbV6z9wjt-wrmvzL-61" value="" style="edgeStyle=none;html=1;endArrow=none;verticalAlign=bottom;rounded=0;entryX=0.337;entryY=0.354;entryDx=0;entryDy=0;entryPerimeter=0;exitX=1;exitY=0.5;exitDx=0;exitDy=0;" edge="1" parent="1" source="5N20gbV6z9wjt-wrmvzL-59">
          <mxGeometry width="160" relative="1" as="geometry">
            <mxPoint x="950" y="1405" as="sourcePoint" />
            <mxPoint x="1080" y="1431" as="targetPoint" />
          </mxGeometry>
        </mxCell>
        <mxCell id="5N20gbV6z9wjt-wrmvzL-62" value="" style="edgeStyle=none;html=1;endArrow=none;verticalAlign=bottom;rounded=0;entryX=0.5;entryY=0.5;entryDx=0;entryDy=0;entryPerimeter=0;exitX=1;exitY=0;exitDx=0;exitDy=0;" edge="1" parent="1" source="5N20gbV6z9wjt-wrmvzL-60" target="5N20gbV6z9wjt-wrmvzL-46">
          <mxGeometry width="160" relative="1" as="geometry">
            <mxPoint x="960" y="1495" as="sourcePoint" />
            <mxPoint x="1090" y="1441" as="targetPoint" />
          </mxGeometry>
        </mxCell>
      </root>
    </mxGraphModel>
  </diagram>
</mxfile>
